<svg width="22" height="20" viewBox="0 0 22 20" fill="none" xmlns="http://www.w3.org/2000/svg">
<path d="M10.0845 0.859336C10.3844 -0.0609409 11.6863 -0.0609401 11.9862 0.859337L13.7373 6.23373C13.8714 6.64536 14.2551 6.92394 14.6881 6.92394H20.3488C21.3182 6.92394 21.7205 8.16497 20.9355 8.73373L16.3607 12.0484C16.0092 12.303 15.8621 12.7553 15.9966 13.168L17.7451 18.5346C18.0452 19.4554 16.9919 20.2224 16.2076 19.6542L11.6221 16.3318C11.272 16.0782 10.7987 16.0782 10.4486 16.3318L5.86309 19.6542C5.07883 20.2224 4.02554 19.4554 4.32556 18.5346L6.07414 13.168C6.20859 12.7553 6.06151 12.303 5.71005 12.0484L1.13518 8.73373C0.35017 8.16497 0.752501 6.92394 1.7219 6.92394H7.38265C7.81558 6.92394 8.19934 6.64536 8.33345 6.23373L10.0845 0.859336Z" fill="#070707"/>
</svg>
