<svg width="59" height="89" viewBox="0 0 59 89" fill="none" xmlns="http://www.w3.org/2000/svg">
<g clip-path="url(#clip0_1_266)">
<path d="M15.0455 88.9905C23.084 88.9905 29.6041 82.3508 29.6041 74.1648V59.3391H15.0455C7.00695 59.3391 0.486816 65.9788 0.486816 74.1648C0.486816 82.3508 7.00695 88.9905 15.0455 88.9905Z" fill="#0ACF83"/>
<path d="M0.486816 44.4954C0.486816 36.3094 7.00695 29.6697 15.0455 29.6697H29.6041V59.3393H15.0455C7.00695 59.3211 0.486816 52.6814 0.486816 44.4954Z" fill="#A259FF"/>
<path d="M0.486816 14.8257C0.486816 6.63973 7.00695 0 15.0455 0H29.6041V29.6696H15.0455C7.00695 29.6696 0.486816 23.0117 0.486816 14.8257Z" fill="#F24E1E"/>
<path d="M29.6221 0H44.1807C52.2192 0 58.7394 6.63973 58.7394 14.8257C58.7394 23.0117 52.2192 29.6514 44.1807 29.6514H29.6221V0V0Z" fill="#FF7262"/>
<path d="M58.7394 44.4954C58.7394 52.6814 52.2192 59.3211 44.1807 59.3211C36.1422 59.3211 29.6221 52.6814 29.6221 44.4954C29.6221 36.3094 36.1422 29.6697 44.1807 29.6697C52.2192 29.6697 58.7394 36.3094 58.7394 44.4954Z" fill="#1ABCFE"/>
</g>
<defs>
<clipPath id="clip0_1_266">
<rect width="58.2524" height="88.9906" fill="white" transform="translate(0.486816)"/>
</clipPath>
</defs>
</svg>
